<svg xmlns="http://www.w3.org/2000/svg" xmlns:xlink="http://www.w3.org/1999/xlink" width="500" zoomAndPan="magnify" viewBox="0 0 375 374.999991" height="500" preserveAspectRatio="xMidYMid meet" version="1.0"><defs><clipPath id="4c42fed3bf"><path d="M 3.597656 110.261719 L 98 110.261719 L 98 240 L 3.597656 240 Z M 3.597656 110.261719 " clip-rule="nonzero"/></clipPath><clipPath id="d2a8b1c297"><path d="M 352 123 L 371.09375 123 L 371.09375 144 L 352 144 Z M 352 123 " clip-rule="nonzero"/></clipPath></defs><rect x="-37.5" width="450" fill="#ffffff" y="-37.499999" height="449.999989" fill-opacity="1"/><rect x="-37.5" width="450" fill="#ffffff" y="-37.499999" height="449.999989" fill-opacity="1"/><g clip-path="url(#4c42fed3bf)"><path fill="#c71518" d="M 10.324219 111.921875 C 8.726562 112.59375 6.625 114.1875 5.699219 115.445312 C 4.101562 117.625 4.019531 119.21875 3.765625 174.921875 L 3.597656 232.132812 L 6.203125 235.070312 C 7.632812 236.746094 10.15625 238.421875 11.839844 238.929688 C 13.773438 239.429688 29.414062 239.765625 51.871094 239.765625 C 87.613281 239.765625 88.875 239.683594 92.324219 238.003906 C 94.761719 236.746094 96.105469 235.40625 96.863281 233.390625 C 97.621094 231.292969 97.871094 216.78125 97.871094 174.753906 C 97.789062 113.851562 97.957031 115.949219 92.996094 112.59375 C 90.808594 111.082031 88.371094 111 51.953125 110.832031 C 19.070312 110.664062 12.847656 110.832031 10.324219 111.921875 Z M 87.277344 140.527344 C 87.109375 154.285156 86.941406 155.460938 85.59375 155.460938 C 84.417969 155.460938 83.828125 154.367188 82.988281 150.675781 C 80.96875 141.953125 77.859375 137.757812 70.625 134.152344 C 69.109375 133.3125 65.160156 132.894531 58.597656 132.894531 L 48.925781 132.808594 L 48.925781 152.019531 C 48.925781 162.503906 49.09375 171.3125 49.347656 171.566406 C 49.601562 171.816406 51.199219 171.734375 52.964844 171.398438 C 59.269531 170.222656 63.980469 163.09375 65.410156 152.269531 C 65.832031 149.082031 66.25 148.328125 67.597656 148.328125 C 69.195312 148.328125 69.195312 149 69.027344 174.5 C 68.773438 197.992188 68.605469 200.757812 67.429688 201.011719 C 66.335938 201.179688 65.832031 200.171875 65.074219 195.894531 C 63.222656 185.238281 59.101562 179.117188 53.214844 178.109375 C 51.367188 177.773438 49.601562 177.773438 49.261719 177.941406 C 48.84375 178.191406 48.589844 182.304688 48.675781 187.085938 C 49.011719 216.863281 48.925781 216.195312 50.609375 217.871094 C 54.058594 221.3125 67.261719 220.722656 74.996094 216.78125 C 81.472656 213.425781 86.855469 206.378906 88.875 198.410156 C 90.136719 193.460938 92.742188 191.699219 92.742188 195.894531 C 92.742188 198.410156 90.640625 217.117188 89.714844 222.316406 L 89.210938 225.503906 L 52.207031 225.503906 C 24.875 225.503906 15.289062 225.253906 15.539062 224.582031 C 15.707031 223.996094 16.96875 223.492188 18.316406 223.324219 C 22.265625 222.90625 25.210938 221.3125 26.21875 219.128906 C 26.894531 217.621094 27.144531 204.53125 27.144531 175.171875 L 27.144531 133.3125 L 25.210938 131.132812 C 23.78125 129.453125 22.265625 128.78125 19.324219 128.445312 C 16.71875 128.113281 15.371094 127.609375 15.371094 126.851562 C 15.371094 125.847656 21.425781 125.679688 51.449219 125.679688 L 87.445312 125.679688 Z M 87.277344 140.527344 " fill-opacity="1" fill-rule="nonzero"/></g><path fill="#000000" d="M 181.390625 126.855469 C 178.953125 129.289062 178.53125 130.292969 178.53125 133.566406 C 178.53125 138.011719 180.214844 141.117188 183.660156 142.960938 C 190.304688 146.316406 197.035156 141.453125 197.035156 133.148438 C 197.035156 130.378906 196.527344 129.203125 194.171875 126.855469 C 191.820312 124.507812 190.640625 124.003906 187.78125 124.003906 C 184.921875 124.003906 183.746094 124.507812 181.390625 126.855469 Z M 181.390625 126.855469 " fill-opacity="1" fill-rule="nonzero"/><g clip-path="url(#d2a8b1c297)"><path fill="#000000" d="M 356.894531 125.175781 C 354.035156 126.769531 352.6875 129.707031 352.605469 134.070312 C 352.605469 138.429688 354.117188 141.03125 357.820312 142.960938 C 364.796875 146.570312 372.789062 139.1875 370.769531 131.050781 C 370.433594 129.789062 369.089844 127.777344 367.742188 126.433594 C 365.050781 123.75 360.507812 123.164062 356.894531 125.175781 Z M 356.894531 125.175781 " fill-opacity="1" fill-rule="nonzero"/></g><path fill="#000000" d="M 102.835938 126.769531 C 102.835938 127.273438 103.929688 128.277344 105.273438 128.867188 C 107.125 129.703125 107.796875 130.628906 108.21875 133.058594 C 109.144531 138.597656 108.808594 216.695312 107.882812 219.378906 C 107.378906 220.808594 106.03125 222.316406 104.9375 222.820312 C 103.761719 223.40625 102.835938 224.164062 102.835938 224.664062 C 102.835938 225.839844 132.269531 225.421875 132.355469 224.246094 C 132.355469 223.742188 131.515625 223.238281 130.421875 222.988281 C 127.226562 222.234375 126.382812 219.210938 126.382812 208.308594 C 126.46875 199.5 126.636719 197.988281 128.148438 196.226562 C 129.160156 195.054688 130.082031 194.464844 130.589844 194.96875 C 132.355469 196.730469 143.289062 217.199219 143.707031 219.632812 C 144.210938 221.8125 143.960938 222.316406 142.445312 222.734375 C 141.523438 222.988281 140.679688 223.742188 140.679688 224.332031 C 140.679688 225.253906 143.457031 225.503906 155.398438 225.503906 C 164.398438 225.503906 170.117188 225.167969 170.117188 224.664062 C 170.117188 224.246094 169.023438 223.324219 167.675781 222.570312 C 165.996094 221.730469 163.554688 218.457031 159.769531 211.914062 C 152.453125 199.164062 144.550781 185.238281 143.371094 182.972656 C 142.445312 181.378906 143.203125 180.289062 150.519531 171.734375 C 156.15625 165.273438 159.6875 161.917969 161.875 160.996094 C 165.742188 159.316406 165.910156 158.394531 162.378906 158.394531 C 160.863281 158.394531 155.3125 158.3125 150.015625 158.144531 C 143.625 158.058594 140.261719 158.3125 140.09375 158.980469 C 139.925781 159.484375 140.847656 160.15625 142.109375 160.492188 C 145.558594 161.332031 146.566406 162.503906 146.566406 165.523438 C 146.566406 169.046875 143.203125 173.914062 134.035156 183.5625 L 126.46875 191.53125 L 126.382812 158.5625 L 126.382812 125.679688 L 114.609375 125.679688 C 105.695312 125.679688 102.835938 125.929688 102.835938 126.769531 Z M 102.835938 126.769531 " fill-opacity="1" fill-rule="nonzero"/><path fill="#000000" d="M 242.773438 156.96875 C 239.070312 158.394531 235.371094 161.25 234.023438 163.765625 C 232.34375 166.953125 231.671875 166.449219 231.332031 162.085938 L 231.082031 158.3125 L 220.988281 158.3125 C 207.703125 158.226562 207.113281 158.3125 207.113281 158.984375 C 207.113281 159.402344 208.375 160.242188 209.886719 160.914062 C 211.652344 161.75 212.917969 163.175781 213.589844 165.105469 C 214.851562 168.882812 215.019531 247.902344 213.757812 251.261719 C 212.746094 253.859375 210.644531 255.621094 208.542969 255.707031 C 207.703125 255.707031 207.113281 256.207031 207.367188 256.710938 C 207.871094 258.304688 239.996094 258.304688 240.585938 256.796875 C 240.753906 256.042969 239.996094 255.707031 238.3125 255.707031 C 235.285156 255.707031 232.761719 253.273438 232.007812 249.664062 C 231.25 245.972656 231.417969 219.632812 232.175781 219.632812 C 232.511719 219.632812 233.269531 220.390625 233.773438 221.226562 C 234.359375 222.152344 236.632812 223.914062 238.820312 225.253906 C 248.828125 231.128906 260.851562 225.925781 266.402344 213.425781 C 270.1875 204.871094 271.28125 189.351562 268.925781 178.277344 C 265.5625 162.339844 253.871094 152.777344 242.773438 156.96875 Z M 246.640625 166.617188 C 247.902344 167.960938 249.414062 170.476562 249.917969 172.320312 C 251.683594 178.445312 252.695312 191.449219 252.105469 199.921875 C 251.351562 211.078125 250.257812 216.109375 247.734375 219.382812 C 246.136719 221.648438 245.125 222.152344 242.6875 222.152344 C 240.078125 222.152344 238.988281 221.480469 235.539062 217.957031 L 231.5 213.761719 L 231.5 194.71875 C 231.5 173.410156 232.007812 170.980469 237.304688 166.53125 C 240.835938 163.597656 243.613281 163.679688 246.640625 166.617188 Z M 246.640625 166.617188 " fill-opacity="1" fill-rule="nonzero"/><path fill="#000000" d="M 300.636719 157.222656 C 294.582031 158.816406 291.722656 160.410156 287.9375 164.351562 C 284.40625 167.960938 282.472656 173.414062 283.3125 177.523438 C 284.324219 182.554688 290.460938 185.910156 295.085938 183.984375 C 300.300781 181.800781 301.480469 177.4375 298.367188 171.398438 C 295.761719 166.199219 295.761719 164.6875 298.199219 163.011719 C 303.078125 159.824219 309.722656 161.164062 311.402344 165.609375 C 311.90625 166.785156 312.242188 171.230469 312.242188 175.425781 L 312.242188 183.144531 L 307.785156 185.574219 C 294.582031 192.789062 286.257812 199.835938 283.566406 206.046875 C 281.128906 211.582031 281.632812 219.214844 284.660156 223.15625 C 290.125 230.289062 298.367188 228.945312 308.878906 219.382812 C 312.414062 216.109375 312.582031 216.109375 313.421875 220.136719 C 314.515625 225.003906 320.316406 228.609375 325.699219 227.605469 C 330.832031 226.679688 338.820312 218.964844 336.800781 216.949219 C 336.296875 216.445312 335.792969 216.445312 335.457031 217.035156 C 334.53125 218.460938 330.996094 218.125 330.410156 216.613281 C 330.15625 215.859375 329.90625 205.625 329.90625 193.796875 C 329.90625 180.792969 329.570312 170.894531 328.980469 168.882812 C 327.71875 164.183594 321.242188 158.144531 316.195312 156.886719 C 311.234375 155.628906 306.1875 155.710938 300.636719 157.222656 Z M 311.90625 210.828125 C 311.234375 213.175781 306.019531 216.53125 304.003906 215.941406 C 299.796875 214.601562 297.945312 209.148438 299.542969 203.109375 C 300.21875 200.757812 302.320312 197.738281 306.1875 193.546875 L 311.824219 187.503906 L 312.074219 198.328125 C 312.160156 204.28125 312.074219 209.902344 311.90625 210.828125 Z M 311.90625 210.828125 " fill-opacity="1" fill-rule="nonzero"/><path fill="#000000" d="M 173.3125 158.226562 C 171.128906 158.644531 171.464844 159.820312 173.902344 160.40625 C 175.082031 160.742188 176.679688 161.917969 177.433594 163.175781 C 178.78125 165.1875 178.949219 168.042969 178.949219 191.949219 C 178.949219 215.605469 178.78125 218.710938 177.519531 220.640625 C 176.679688 221.898438 175.25 222.988281 174.238281 223.15625 C 173.144531 223.324219 172.21875 223.910156 171.96875 224.414062 C 171.714844 225.253906 175.25 225.503906 187.695312 225.503906 C 196.691406 225.503906 203.757812 225.167969 203.757812 224.75 C 203.757812 224.332031 202.582031 223.574219 201.234375 223.070312 C 196.441406 221.476562 196.1875 219.632812 196.1875 187.335938 L 196.1875 158.394531 L 187.609375 158.3125 C 182.816406 158.3125 178.023438 158.226562 176.847656 158.144531 C 175.667969 157.976562 174.070312 158.058594 173.3125 158.226562 Z M 173.3125 158.226562 " fill-opacity="1" fill-rule="nonzero"/><path fill="#000000" d="M 347.3125 158.226562 C 345.042969 158.648438 345.632812 159.652344 348.828125 160.828125 C 351.097656 161.667969 351.9375 162.507812 352.527344 164.9375 C 353.535156 168.628906 354.042969 249.832031 353.117188 251.34375 C 352.78125 251.847656 351.601562 252.351562 350.59375 252.351562 C 348.070312 252.351562 346.304688 248.40625 346.976562 244.296875 C 347.398438 241.863281 347.144531 240.941406 345.464844 239.265625 C 343.109375 236.914062 341.929688 236.746094 339.492188 238.507812 C 333.183594 242.871094 335.960938 253.945312 343.949219 256.628906 C 356.394531 260.65625 367.328125 253.945312 369.429688 241.023438 C 369.851562 238.257812 370.273438 218.542969 370.273438 197.152344 L 370.273438 158.394531 L 368.421875 158.3125 C 355.21875 158.058594 348.40625 158.058594 347.3125 158.226562 Z M 347.3125 158.226562 " fill-opacity="1" fill-rule="nonzero"/></svg>